<svg width="16" height="16" viewBox="0 0 16 16" fill="none" xmlns="http://www.w3.org/2000/svg">
    <g clip-path="url(#clip0_17_91)">
        <path
            d="M1.67505 7.99993C1.67505 11.5 4.50683 14.3374 8.00002 14.3374C11.4932 14.3374 14.325 11.5 14.325 7.99993C14.325 4.49986 11.4932 1.66249 8.00002 1.66249C4.50683 1.66249 1.67505 4.49986 1.67505 7.99993Z"
            fill="#F46852"/>
        <path
            d="M2.7561 7.99992C2.7561 10.9018 5.10387 13.2542 7.99996 13.2542C10.8961 13.2542 13.2438 10.9018 13.2438 7.99992C13.2438 5.09811 10.8961 2.74573 7.99996 2.74573C5.10387 2.74573 2.7561 5.09811 2.7561 7.99992Z"
            fill="#F14C4B"/>
        <path
            d="M2.41222 8.00001H2.35693C2.35696 11.1228 4.88343 13.6543 8.00007 13.6543C11.1167 13.6543 13.6431 11.1228 13.6432 8.00001C13.6431 4.87725 11.1167 2.34576 8.00007 2.34576C4.88343 2.34576 2.35696 4.87721 2.35693 8.00001H2.41222H2.4675C2.46753 6.46904 3.08666 5.08354 4.08796 4.08017C5.08931 3.07692 6.47212 2.45655 8.00007 2.45655C9.52802 2.45655 10.9108 3.07692 11.9122 4.08017C12.9134 5.08354 13.5326 6.46904 13.5326 8.00001C13.5326 9.53098 12.9134 10.9165 11.9122 11.9198C10.9108 12.9231 9.52802 13.5435 8.00007 13.5435C6.47212 13.5435 5.08931 12.9231 4.08796 11.9198C3.08668 10.9165 2.46753 9.53098 2.4675 8.00001H2.41222Z"
            fill="#F14C4B"/>
        <path
            d="M8.00001 14.5746C4.37612 14.5746 1.43839 11.631 1.43839 7.99999C1.43839 4.36897 4.37612 1.42543 8.00001 1.42543C11.6239 1.42543 14.5616 4.36897 14.5616 7.99999C14.5616 11.631 11.6239 14.5746 8.00001 14.5746ZM15.2939 8.45979L15.7748 7.99999L15.2939 7.54022L15.7135 7.02366L15.1788 6.62785L15.5305 6.06269L14.9506 5.73716L15.2288 5.13226L14.6127 4.88214L14.8131 4.24707L14.1706 4.07627L14.2899 3.42108L13.6311 3.33234L13.6676 2.66728L13.0029 2.66196L12.9558 1.99761L12.2957 2.07579L12.1659 1.42259L11.5208 1.58304L11.3103 0.95126L10.6904 1.19152L10.4025 0.591128L9.8175 0.907315L9.45683 0.34784L8.91596 0.735003L8.48817 0.225234L8.00001 0.677284L7.51181 0.225234L7.08402 0.735003L6.54316 0.34784L6.18252 0.907315L5.59746 0.591128L5.30965 1.19152L4.68966 0.95126L4.47921 1.58304L3.83408 1.42259L3.7043 2.07579L3.04418 1.99761L2.99713 2.66196L2.33243 2.66728L2.36887 3.33234L1.71008 3.42108L1.8294 4.07627L1.18691 4.24707L1.38726 4.88214L0.771196 5.13226L1.0494 5.73716L0.469479 6.06269L0.821169 6.62785L0.286536 7.02366L0.706137 7.54022L0.22522 7.99999L0.706137 8.45979L0.286536 8.97635L0.821169 9.37216L0.469479 9.93732L1.0494 10.2629L0.771196 10.8677L1.38726 11.1179L1.18691 11.7529L1.8294 11.9237L1.71008 12.5789L2.36887 12.6677L2.33243 13.3327L2.99713 13.338L3.04418 14.0024L3.7043 13.9242L3.83408 14.5774L4.47921 14.417L4.68966 15.0487L5.30965 14.8085L5.59746 15.4088L6.18252 15.0927L6.54316 15.6521L7.08402 15.265L7.51181 15.7748L8.00001 15.3227L8.48817 15.7748L8.91596 15.265L9.45683 15.6521L9.8175 15.0927L10.4025 15.4088L10.6904 14.8085L11.3103 15.0487L11.5208 14.417L12.1659 14.5774L12.2957 13.9242L12.9558 14.0024L13.0029 13.338L13.6676 13.3327L13.6311 12.6677L14.2899 12.5789L14.1706 11.9237L14.8131 11.7529L14.6127 11.1179L15.2288 10.8677L14.9506 10.2629L15.5305 9.93732L15.1788 9.37216L15.7135 8.97635L15.2939 8.45979Z"
            fill="#F14C4B"/>
        <path
            d="M15.4556 8.46998L15.4808 8.49646L16 7.99998L15.5052 7.52688L15.9369 6.99536L15.3868 6.58811L15.7487 6.00655L15.1519 5.6716L15.4382 5.04916L14.8043 4.7918L15.0105 4.13834L14.3494 3.9626L14.4722 3.28842L13.7943 3.1971L13.8317 2.5128L13.1478 2.5073L13.0994 1.8237L12.4202 1.90417L12.2866 1.23203L11.6228 1.39714L11.4062 0.747074L10.7683 0.994278L10.4722 0.37649L9.87014 0.701874L9.49907 0.126186L8.94251 0.52454L8.50233 -4.41069e-07L8.00002 0.46512L7.49767 -4.41069e-07L7.05749 0.52454L6.50096 0.126186L6.12986 0.701874L5.52789 0.37649L5.23171 0.994278L4.59376 0.747074L4.37723 1.39714L3.71338 1.23203L3.57987 1.90417L2.90062 1.8237L2.8522 2.5073L2.16826 2.5128L2.20575 3.1971L1.52786 3.28842L1.65066 3.9626L0.989546 4.13834L1.1957 4.7918L0.561785 5.04916L0.848055 5.6716L0.251328 6.00655L0.613196 6.58811L0.0630876 6.99536L0.494839 7.52688L0 7.99998L0.494839 8.47312L0.0630876 9.00464L0.613196 9.41189L0.251328 9.99345L0.848055 10.3284L0.561785 10.9508L1.1957 11.2082L0.989546 11.8617L1.65066 12.0374L1.52786 12.7116L2.20575 12.8029L2.16826 13.4872L2.85221 13.4927L2.90062 14.1763L3.57987 14.0958L3.71338 14.768L4.37723 14.6029L4.59376 15.2529L5.23171 15.0057L5.52789 15.6235L6.12986 15.2981L6.50096 15.8738L7.05749 15.4755L7.49767 16L8.00002 15.5348L8.50233 16L8.94251 15.4755L9.49907 15.8738L9.87014 15.2981L10.4722 15.6235L10.7683 15.0057L11.4062 15.2529L11.6228 14.6029L12.2866 14.768L12.4202 14.0958L13.0994 14.1763L13.1478 13.4927L13.8317 13.4872L13.7943 12.8029L14.4722 12.7116L14.3494 12.0374L15.0105 11.8617L14.8043 11.2082L15.4382 10.9508L15.1519 10.3284L15.7487 9.99345L15.3868 9.41189L15.9369 9.00464L15.4839 8.4469L15.4556 8.46998L15.4272 8.49309L15.832 8.99134L15.2891 9.3932L15.6462 9.96708L15.0574 10.2976L15.3399 10.9118L14.7143 11.1658L14.9178 11.8106L14.2654 11.984L14.3865 12.6493L13.7176 12.7394L13.7546 13.4146L13.0797 13.42L13.032 14.0946L12.3617 14.0152L12.2299 14.6785L11.5749 14.5155L11.3612 15.157L10.7317 14.9131L10.4395 15.5226L9.84541 15.2016L9.47924 15.7697L8.93005 15.3766L8.4957 15.8942L8.00002 15.4352L7.50434 15.8942L7.06995 15.3766L6.52079 15.7697L6.15459 15.2016L5.56058 15.5226L5.26831 14.9131L4.6388 15.157L4.42511 14.5155L3.77006 14.6785L3.6383 14.0152L2.96805 14.0946L2.92028 13.42L2.24537 13.4146L2.28237 12.7394L1.61346 12.6493L1.73462 11.984L1.08225 11.8106L1.28568 11.1658L0.660143 10.9118L0.942628 10.2976L0.353806 9.96708L0.71088 9.3932L0.168042 8.99134L0.59409 8.46684L0.105789 7.99998L0.59409 7.53312L0.168042 7.00862L0.71088 6.60676L0.353806 6.03292L0.942628 5.7024L0.660143 5.0882L1.28568 4.83424L1.08225 4.18942L1.73462 4.016L1.61346 3.35072L2.28237 3.26061L2.24537 2.58537L2.92028 2.57994L2.96805 1.90539L3.63832 1.98475L3.77006 1.32151L4.42511 1.48447L4.6388 0.84298L5.26831 1.0869L5.56058 0.477308L6.15459 0.798369L6.52079 0.230289L7.06995 0.623399L7.50434 0.105801L8.00002 0.564755L8.4957 0.105801L8.93005 0.623399L9.47924 0.230289L9.84541 0.798369L10.4395 0.477308L10.7317 1.0869L11.3612 0.84298L11.5749 1.48447L12.2299 1.32151L12.3617 1.98475L13.032 1.90539L13.0797 2.57994L13.7546 2.58537L13.7176 3.26061L14.3865 3.35072L14.2654 4.016L14.9178 4.18942L14.7143 4.83424L15.3399 5.0882L15.0574 5.7024L15.6462 6.03292L15.2891 6.60676L15.832 7.00862L15.4059 7.53312L15.8942 7.99998L15.4059 8.46684L15.4272 8.49309L15.4556 8.46998Z"
            fill="#F14C4B"/>
        <path
            d="M7.37417 1.0691C7.3755 1.1379 7.43229 1.19259 7.50096 1.19126C7.56966 1.18993 7.62424 1.13302 7.62291 1.06422C7.62155 0.995389 7.56479 0.940697 7.49609 0.942026C7.42743 0.943393 7.37281 1.00026 7.37417 1.0691Z"
            fill="white"/>
        <path
            d="M6.50076 1.17859C6.50212 1.24743 6.55888 1.30212 6.62758 1.30076C6.69624 1.29943 6.75086 1.24256 6.7495 1.17372C6.74817 1.10488 6.69138 1.05019 6.62271 1.05156C6.55401 1.05289 6.49943 1.10976 6.50076 1.17859Z"
            fill="white"/>
        <path
            d="M5.69009 1.42994C5.69145 1.49874 5.74821 1.55347 5.81691 1.5521C5.88557 1.55073 5.94019 1.49386 5.93883 1.42506C5.9375 1.35623 5.88071 1.30154 5.81204 1.30286C5.74334 1.30423 5.68876 1.3611 5.69009 1.42994Z"
            fill="white"/>
        <path
            d="M4.9254 1.80581C4.95083 1.86973 5.02321 1.90086 5.08701 1.87538C5.15081 1.84986 5.18192 1.77737 5.15645 1.71345C5.13102 1.64949 5.05863 1.61836 4.99483 1.64384C4.93104 1.66936 4.89993 1.74185 4.9254 1.80581Z"
            fill="white"/>
        <path
            d="M4.14659 2.21644C4.17202 2.28036 4.2444 2.31153 4.3082 2.28601C4.372 2.26049 4.40311 2.188 4.37764 2.12404C4.35217 2.06012 4.27982 2.02899 4.21602 2.05447C4.15223 2.07998 4.12112 2.15248 4.14659 2.21644Z"
            fill="white"/>
        <path
            d="M3.47617 2.73792C3.50163 2.80185 3.57399 2.83301 3.63779 2.8075C3.7016 2.78202 3.73271 2.70949 3.70724 2.64556C3.68179 2.5816 3.60942 2.55047 3.54561 2.57595C3.4818 2.60147 3.45072 2.674 3.47617 2.73792Z"
            fill="white"/>
        <path
            d="M2.84437 3.34077C2.89301 3.3894 2.97176 3.38933 3.02029 3.34062C3.06882 3.29191 3.06875 3.21296 3.02013 3.16436C2.9715 3.11572 2.89275 3.11579 2.84421 3.1645C2.79568 3.21321 2.79575 3.29217 2.84437 3.34077Z"
            fill="white"/>
        <path
            d="M2.29115 4.02668C2.33978 4.07532 2.41854 4.07524 2.46707 4.02653C2.5156 3.97779 2.51553 3.89887 2.46691 3.85027C2.41827 3.80163 2.33952 3.80171 2.29099 3.85042C2.24246 3.89916 2.24253 3.97804 2.29115 4.02668Z"
            fill="white"/>
        <path
            d="M1.88148 4.77131C1.93012 4.81994 2.00887 4.81987 2.0574 4.77116C2.10593 4.72245 2.10586 4.64353 2.05724 4.5949C2.00861 4.54626 1.92985 4.54634 1.88132 4.59505C1.83279 4.64379 1.83286 4.72271 1.88148 4.77131Z"
            fill="white"/>
        <path
            d="M1.59101 5.5735C1.65363 5.60186 1.72729 5.57398 1.7556 5.51124C1.78389 5.44853 1.75608 5.37471 1.69346 5.34635C1.63086 5.31799 1.55718 5.34587 1.52889 5.40861C1.5006 5.47132 1.52841 5.54514 1.59101 5.5735Z"
            fill="white"/>
        <path
            d="M1.31452 6.41078C1.37713 6.43914 1.45082 6.41126 1.47911 6.34855C1.5074 6.28581 1.47958 6.21199 1.41699 6.18363C1.35437 6.1553 1.28069 6.18315 1.2524 6.24589C1.22411 6.30859 1.25193 6.38245 1.31452 6.41078Z"
            fill="white"/>
        <path
            d="M1.19284 7.25233C1.25543 7.28069 1.32912 7.25281 1.35741 7.19011C1.3857 7.12736 1.35788 7.05354 1.29528 7.02518C1.23267 6.99686 1.159 7.0247 1.1307 7.08744C1.10241 7.15019 1.13022 7.22401 1.19284 7.25233Z"
            fill="white"/>
        <path
            d="M1.12766 8.17093C1.19625 8.17488 1.25503 8.12233 1.25896 8.05365C1.26289 7.98492 1.21047 7.92602 1.14188 7.92207C1.0733 7.91815 1.01452 7.97067 1.01058 8.03939C1.00665 8.10812 1.05907 8.16702 1.12766 8.17093Z"
            fill="white"/>
        <path
            d="M1.16965 9.05179C1.23824 9.05574 1.29702 9.00323 1.30094 8.93451C1.30487 8.86578 1.25245 8.80688 1.18388 8.80293C1.11529 8.79901 1.05649 8.85153 1.05258 8.92025C1.04865 8.98898 1.10106 9.04788 1.16965 9.05179Z"
            fill="white"/>
        <path
            d="M1.35764 9.88102C1.42621 9.88497 1.48501 9.83245 1.48894 9.76373C1.49286 9.695 1.44044 9.6361 1.37185 9.63215C1.30328 9.62824 1.24449 9.68075 1.24056 9.74948C1.23663 9.8182 1.28905 9.8771 1.35764 9.88102Z"
            fill="white"/>
        <path
            d="M1.67287 10.6737C1.73844 10.6532 1.77499 10.5833 1.7545 10.5176C1.73402 10.4519 1.66426 10.4153 1.59869 10.4358C1.53311 10.4563 1.49657 10.5262 1.51704 10.5919C1.53753 10.6576 1.6073 10.6943 1.67287 10.6737Z"
            fill="white"/>
        <path
            d="M2.02186 11.4833C2.08743 11.4628 2.12398 11.3929 2.1035 11.3272C2.08302 11.2615 2.01325 11.2249 1.94768 11.2454C1.8821 11.2659 1.84556 11.3358 1.86605 11.4015C1.88652 11.4672 1.95629 11.5038 2.02186 11.4833Z"
            fill="white"/>
        <path
            d="M2.48927 12.193C2.55485 12.1725 2.59139 12.1026 2.57092 12.0369C2.55043 11.9712 2.48066 11.9346 2.41508 11.9551C2.34952 11.9756 2.31296 12.0455 2.33345 12.1112C2.35394 12.1769 2.42369 12.2136 2.48927 12.193Z"
            fill="white"/>
        <path
            d="M3.04077 12.8704C3.09288 12.8256 3.09884 12.7469 3.05408 12.6947C3.00932 12.6424 2.9308 12.6365 2.87868 12.6813C2.82656 12.7262 2.82059 12.8049 2.86535 12.8571C2.91011 12.9093 2.98865 12.9153 3.04077 12.8704Z"
            fill="white"/>
        <path
            d="M3.68091 13.4756C3.73301 13.4308 3.73898 13.3521 3.69424 13.2999C3.64946 13.2477 3.57093 13.2417 3.51881 13.2865C3.4667 13.3314 3.46073 13.4101 3.50549 13.4623C3.55025 13.5145 3.62877 13.5205 3.68091 13.4756Z"
            fill="white"/>
        <path
            d="M4.39048 13.9421C4.4426 13.8972 4.44857 13.8185 4.40383 13.7663C4.35905 13.7141 4.28054 13.7081 4.22839 13.753C4.17628 13.7978 4.17034 13.8765 4.21509 13.9287C4.25983 13.981 4.33837 13.9869 4.39048 13.9421Z"
            fill="white"/>
        <path
            d="M5.16635 14.2939C5.19937 14.2335 5.17729 14.1577 5.11703 14.1247C5.05677 14.0916 4.98118 14.1137 4.9482 14.1741C4.91517 14.2345 4.93725 14.3102 4.99751 14.3433C5.05777 14.3764 5.13336 14.3542 5.16635 14.2939Z"
            fill="white"/>
        <path
            d="M5.97836 14.6343C6.01138 14.574 5.98931 14.4982 5.92905 14.4651C5.86879 14.432 5.79319 14.4542 5.76021 14.5145C5.72718 14.5749 5.74926 14.6507 5.80952 14.6838C5.86978 14.7168 5.94537 14.6947 5.97836 14.6343Z"
            fill="white"/>
        <path
            d="M6.80637 14.8203C6.8394 14.76 6.81732 14.6842 6.75706 14.6512C6.6968 14.6181 6.62121 14.6402 6.58818 14.7006C6.5552 14.761 6.57728 14.8367 6.63754 14.8698C6.69776 14.9028 6.77339 14.8807 6.80637 14.8203Z"
            fill="white"/>
        <path
            d="M7.70137 14.9159C7.70973 14.8476 7.66123 14.7854 7.59301 14.777C7.52482 14.7686 7.4628 14.8172 7.45443 14.8856C7.44606 14.9539 7.4946 15.0161 7.56279 15.0245C7.63097 15.0328 7.693 14.9842 7.70137 14.9159Z"
            fill="white"/>
        <path
            d="M8.58137 14.9309C8.5897 14.8626 8.5412 14.8004 8.47301 14.792C8.40483 14.7837 8.34276 14.8323 8.33443 14.9006C8.32607 14.9689 8.37457 15.0311 8.44275 15.0395C8.51098 15.0478 8.57301 14.9992 8.58137 14.9309Z"
            fill="white"/>
        <path
            d="M9.41938 14.7965C9.42771 14.7282 9.37921 14.666 9.31103 14.6576C9.24284 14.6493 9.18078 14.6979 9.17245 14.7662C9.16408 14.8345 9.21258 14.8967 9.28077 14.9051C9.34899 14.9134 9.41102 14.8648 9.41938 14.7965Z"
            fill="white"/>
        <path
            d="M10.2293 14.5326C10.2131 14.4657 10.1458 14.4246 10.0791 14.4409C10.0123 14.4571 9.97136 14.5245 9.98754 14.5914C10.0038 14.6583 10.071 14.6993 10.1378 14.6831C10.2045 14.6669 10.2455 14.5995 10.2293 14.5326Z"
            fill="white"/>
        <path
            d="M11.0582 14.236C11.042 14.1691 10.9747 14.128 10.9079 14.1442C10.8412 14.1605 10.8002 14.2279 10.8164 14.2947C10.8326 14.3616 10.8999 14.4027 10.9666 14.3865C11.0334 14.3702 11.0744 14.3028 11.0582 14.236Z"
            fill="white"/>
        <path
            d="M11.7952 13.8144C11.779 13.7476 11.7118 13.7065 11.645 13.7227C11.5783 13.7389 11.5373 13.8063 11.5535 13.8732C11.5697 13.9401 11.6369 13.9812 11.7037 13.965C11.7705 13.9487 11.8115 13.8813 11.7952 13.8144Z"
            fill="white"/>
        <path
            d="M12.5055 13.3069C12.4642 13.2519 12.3863 13.2409 12.3313 13.2822C12.2765 13.3236 12.2654 13.4018 12.3067 13.4567C12.348 13.5118 12.426 13.5228 12.4809 13.4814C12.5358 13.44 12.5468 13.3619 12.5055 13.3069Z"
            fill="white"/>
        <path
            d="M13.1497 12.7059C13.1084 12.651 13.0304 12.6399 12.9755 12.6813C12.9206 12.7226 12.9096 12.8008 12.9509 12.8558C12.9922 12.9108 13.0702 12.9219 13.1251 12.8805C13.18 12.8391 13.191 12.761 13.1497 12.7059Z"
            fill="white"/>
        <path
            d="M13.6601 12.0266C13.6188 11.9716 13.5408 11.9606 13.4859 12.0019C13.431 12.0433 13.42 12.1215 13.4613 12.1765C13.5026 12.2315 13.5806 12.2425 13.6355 12.2012C13.6903 12.1598 13.7014 12.0816 13.6601 12.0266Z"
            fill="white"/>
        <path
            d="M14.0605 11.2734C14.0025 11.2365 13.9256 11.2537 13.8888 11.3118C13.852 11.3699 13.8691 11.447 13.9271 11.4839C13.9851 11.5207 14.062 11.5036 14.0988 11.4455C14.1356 11.3874 14.1185 11.3104 14.0605 11.2734Z"
            fill="white"/>
        <path
            d="M14.4521 10.4836C14.3941 10.4467 14.3172 10.4639 14.2804 10.522C14.2436 10.5801 14.2607 10.6572 14.3187 10.6941C14.3767 10.731 14.4536 10.7138 14.4904 10.6557C14.5272 10.5976 14.5101 10.5206 14.4521 10.4836Z"
            fill="white"/>
        <path
            d="M14.691 9.66772C14.633 9.63083 14.5561 9.648 14.5193 9.70609C14.4824 9.76422 14.4996 9.84125 14.5576 9.87814C14.6156 9.91504 14.6924 9.89786 14.7293 9.83978C14.7661 9.78165 14.749 9.70465 14.691 9.66772Z"
            fill="white"/>
        <path
            d="M14.8847 8.76745C14.8173 8.75386 14.7517 8.79754 14.7382 8.86505C14.7247 8.93252 14.7683 8.99825 14.8356 9.0118C14.9029 9.02539 14.9685 8.98171 14.9821 8.91424C14.9956 8.84677 14.952 8.78103 14.8847 8.76745Z"
            fill="white"/>
        <path
            d="M14.9671 7.88939C14.8997 7.8758 14.8342 7.91949 14.8206 7.98696C14.807 8.05447 14.8506 8.12016 14.918 8.13375C14.9853 8.14734 15.0509 8.10366 15.0645 8.03619C15.078 7.96868 15.0344 7.90298 14.9671 7.88939Z"
            fill="white"/>
        <path
            d="M14.8977 7.04198C14.8304 7.02839 14.7648 7.07208 14.7513 7.13955C14.7377 7.20705 14.7813 7.27275 14.8486 7.28634C14.916 7.29993 14.9816 7.25624 14.9951 7.18877C15.0087 7.12127 14.9651 7.05557 14.8977 7.04198Z"
            fill="white"/>
        <path
            d="M14.697 6.21264C14.6293 6.22371 14.5832 6.28775 14.5943 6.3557C14.6053 6.42361 14.6692 6.46974 14.737 6.45869C14.8049 6.44762 14.8508 6.38358 14.8398 6.31563C14.8288 6.24772 14.7649 6.20159 14.697 6.21264Z"
            fill="white"/>
        <path
            d="M14.4655 5.36181C14.3977 5.37288 14.3517 5.43692 14.3627 5.50487C14.3737 5.57278 14.4377 5.61891 14.5055 5.60786C14.5733 5.59679 14.6193 5.53275 14.6083 5.4648C14.5972 5.39689 14.5333 5.35076 14.4655 5.36181Z"
            fill="white"/>
        <path
            d="M14.1026 4.59316C14.0348 4.6042 13.9888 4.66823 13.9998 4.73618C14.0109 4.80413 14.0748 4.85026 14.1426 4.83918C14.2104 4.82814 14.2564 4.7641 14.2454 4.69615C14.2343 4.6282 14.1704 4.58208 14.1026 4.59316Z"
            fill="white"/>
        <path
            d="M13.6521 3.84462C13.5942 3.88166 13.5772 3.95873 13.6141 4.01675C13.6511 4.07476 13.728 4.09179 13.7859 4.05475C13.8438 4.01771 13.8608 3.94064 13.8239 3.88262C13.7869 3.82461 13.71 3.80758 13.6521 3.84462Z"
            fill="white"/>
        <path
            d="M13.1034 3.15505C13.0455 3.19209 13.0285 3.26916 13.0654 3.32717C13.1024 3.38519 13.1793 3.40221 13.2372 3.36517C13.2951 3.32813 13.3121 3.25106 13.2751 3.19305C13.2382 3.13503 13.1613 3.11801 13.1034 3.15505Z"
            fill="white"/>
        <path
            d="M12.4666 2.59294C12.4087 2.62998 12.3918 2.70701 12.4287 2.76503C12.4657 2.82308 12.5426 2.84007 12.6005 2.80303C12.6584 2.76603 12.6754 2.68896 12.6384 2.6309C12.6015 2.57289 12.5246 2.5559 12.4666 2.59294Z"
            fill="white"/>
        <path
            d="M11.7478 2.13511C11.7067 2.19025 11.7179 2.26835 11.7729 2.3096C11.8279 2.35085 11.9058 2.33963 11.947 2.28453C11.9882 2.22943 11.977 2.15133 11.922 2.11008C11.867 2.06879 11.789 2.08002 11.7478 2.13511Z"
            fill="white"/>
        <path
            d="M10.992 1.68349C10.9508 1.73859 10.962 1.81669 11.017 1.85794C11.072 1.89919 11.1499 1.88797 11.1911 1.83287C11.2323 1.77777 11.2211 1.69967 11.1661 1.65842C11.1111 1.61717 11.0332 1.62836 10.992 1.68349Z"
            fill="white"/>
        <path
            d="M10.1984 1.38222C10.1572 1.43732 10.1684 1.51542 10.2234 1.55667C10.2784 1.59792 10.3564 1.5867 10.3975 1.5316C10.4387 1.4765 10.4275 1.3984 10.3725 1.35715C10.3175 1.3159 10.2396 1.32709 10.1984 1.38222Z"
            fill="white"/>
        <path
            d="M9.20319 1.16415C9.17507 1.22697 9.20308 1.30072 9.26577 1.32889C9.32843 1.35707 9.40203 1.329 9.43015 1.26619C9.45827 1.20337 9.43026 1.12962 9.36757 1.10145C9.30491 1.07327 9.23131 1.10137 9.20319 1.16415Z"
            fill="white"/>
        <path
            d="M8.36298 1.04452C8.33486 1.10734 8.36287 1.18112 8.42556 1.20926C8.48822 1.23744 8.56182 1.20937 8.58994 1.14656C8.61806 1.08378 8.59005 1.01003 8.52736 0.981853C8.4647 0.953677 8.3911 0.981743 8.36298 1.04452Z"
            fill="white"/>
        <path
            d="M6.87284 11.9807C6.76935 11.9807 6.66147 11.9752 6.54865 11.9637C4.54142 11.7589 3.44767 9.25398 4.73374 7.29098C4.73374 7.29098 3.68805 9.35033 5.75536 10.4944C6.08142 10.6313 6.36747 10.6897 6.61385 10.6897C7.60267 10.6897 7.95505 9.75053 7.71452 9.18171C7.58582 8.87742 7.34287 8.66688 7.01639 8.66688C6.86204 8.66688 6.689 8.71397 6.50055 8.82043L6.13999 7.84495C6.13999 7.84495 7.7568 7.64934 7.5943 6.68881C7.55103 6.43297 7.31751 6.33481 7.01908 6.33481C6.4888 6.33481 5.7534 6.64454 5.51498 6.92967L4.90199 5.9783C4.90199 5.9783 5.83581 5.28606 6.79231 5.28606C7.03935 5.28606 7.28784 5.33222 7.52221 5.4484C8.66402 6.01442 8.53181 7.42344 7.32989 8.07376C7.32989 8.07376 7.61553 8.15948 7.93463 8.40838C7.72083 8.38231 7.57027 8.32669 7.57027 8.32669L8.02703 8.62774C8.02703 8.62774 8.1467 8.73365 8.32833 8.80422C8.44262 8.9533 8.547 9.12994 8.62797 9.33829C9.04769 10.4181 8.61068 11.9807 6.87284 11.9807Z"
            fill="#F04239"/>
        <path
            d="M10.3932 10.9595C9.58764 10.9596 8.9588 10.305 9.33716 9.24198C9.33716 9.24198 9.55757 9.96505 10.2456 9.96505C10.4231 9.96505 10.6316 9.91697 10.8756 9.79595C12.0655 9.20586 11.5367 7.58006 10.9838 7.42348C10.8142 7.37547 10.6604 7.33651 10.5114 7.33651C10.1746 7.33651 9.86196 7.53545 9.44534 8.27853C9.18944 8.7349 8.89426 8.866 8.6397 8.866C8.52533 8.866 8.41911 8.83952 8.32837 8.80425C8.14674 8.73368 8.02707 8.62777 8.02707 8.62777L7.57031 8.32672C7.57031 8.32672 7.72087 8.38234 7.93467 8.40841C8.00002 8.41639 8.07126 8.42156 8.14593 8.42156C8.45991 8.42156 8.83437 8.32975 9.08474 7.96541C9.58956 7.23078 9.6256 6.67681 10.8155 6.67681C12.2065 6.67681 13.0178 8.70333 11.8973 10.1452C11.4602 10.7075 10.8926 10.9594 10.3932 10.9595Z"
            fill="#F04239"/>
        <path
            d="M9.86509 6.34167C9.82975 6.34167 9.794 6.34101 9.75777 6.33961C8.50775 6.29141 7.95487 5.34005 7.9789 4.35249C7.9789 4.35249 8.24334 5.47251 9.37313 5.47251C10.503 5.47251 11.1039 4.73788 11.1039 4.73788L11.7169 5.5809C11.7169 5.5809 11.0483 6.34167 9.86509 6.34167Z"
            fill="#F04239"/>
        <path d="M9.43324 5.13525L8.76013 4.48493L9.42122 3.77438L10.1424 4.46082L9.43324 5.13525Z" fill="#F04239"/>
        <path
            d="M4.4321 7.08137C4.4321 7.08137 3.38643 9.14072 5.45375 10.2848C7.08836 10.9713 7.71337 9.68266 7.41288 8.97214C7.22333 8.52393 6.78592 8.27921 6.19895 8.61083L5.83835 7.63535C5.83835 7.63535 7.45516 7.43973 7.29269 6.47925C7.17251 5.76869 5.58595 6.27451 5.21334 6.7201L4.60038 5.76869C4.60038 5.76869 6.07872 4.67279 7.22057 5.2388C8.36241 5.80481 8.23021 7.21384 7.02825 7.86416C7.02825 7.86416 7.94136 8.13828 8.32633 9.12869C8.77107 10.2728 8.25424 11.9588 6.24701 11.7541C4.23978 11.5493 3.14604 9.04441 4.4321 7.08137Z"
            fill="white"/>
        <path
            d="M7.26868 8.1171C7.26868 8.1171 8.27832 8.49042 8.78314 7.75583C9.28792 7.0212 9.324 6.46722 10.5139 6.46722C11.9049 6.46722 12.7162 8.49374 11.5956 9.9356C10.4538 11.4049 8.42254 10.7545 9.03553 9.03235C9.03553 9.03235 9.38408 10.1765 10.574 9.58636C11.7639 8.99624 11.2351 7.37044 10.6822 7.21386C10.1293 7.05731 9.74468 6.99708 9.1437 8.06891C8.54272 9.14074 7.72544 8.41819 7.72544 8.41819L7.26868 8.1171Z"
            fill="white"/>
        <path
            d="M7.67726 4.1428C7.67726 4.1428 7.94171 5.26279 9.0715 5.26279C10.2013 5.26279 10.8023 4.52816 10.8023 4.52816L11.4153 5.37117C11.4153 5.37117 10.7061 6.17807 9.45613 6.12988C8.20611 6.08173 7.65323 5.13032 7.67726 4.1428Z"
            fill="white"/>
        <path d="M8.45862 4.27534L9.13169 4.92566L9.8408 4.25126L9.11967 3.56482L8.45862 4.27534Z" fill="white"/>
    </g>
    <defs>
        <clipPath id="clip0_17_91">
            <rect width="16" height="16" fill="white"/>
        </clipPath>
    </defs>
</svg>
